<?xml version="1.0" encoding="UTF-8"?>
<svg width="67px" height="42px" viewBox="0 0 67 42" version="1.1" xmlns="http://www.w3.org/2000/svg" xmlns:xlink="http://www.w3.org/1999/xlink">
    <!-- Generator: Sketch 50.2 (55047) - http://www.bohemiancoding.com/sketch -->
    <title>Artboard 1</title>
    <desc>Created with Sketch.</desc>
    <defs>
        <polygon id="path-1" points="0.0003 -0.0001 66.765 -0.0001 66.765 42.4676 0.0003 42.4676"></polygon>
    </defs>
    <g id="Artboard-1" stroke="none" stroke-width="1" fill="none" fill-rule="evenodd">
        <mask id="mask-2" fill="white">
            <use xlink:href="#path-1"></use>
        </mask>
        <g id="Clip-2"></g>
        <path d="M33.3823,17.9359 C31.5633,17.9359 30.0873,19.4119 30.0873,21.2299 C30.0873,23.0489 31.5633,24.5319 33.3823,24.5319 C35.1993,24.5319 36.6763,23.0489 36.6763,21.2299 C36.6763,19.4119 35.1993,17.9359 33.3823,17.9359 Z M33.3823,28.9339 C29.1353,28.9339 25.6793,25.4779 25.6793,21.2299 C25.6793,16.9829 29.1353,13.5269 33.3823,13.5269 C37.6283,13.5269 41.0843,16.9829 41.0843,21.2299 C41.0843,25.4779 37.6283,28.9339 33.3823,28.9339 Z M33.3823,8.9369 C26.6043,8.9369 21.0893,14.4539 21.0893,21.2299 C21.0893,28.0149 26.6043,33.5299 33.3823,33.5299 C40.1593,33.5299 45.6803,28.0149 45.6803,21.2299 C45.6803,14.4539 40.1593,8.9369 33.3823,8.9369 Z M33.3823,38.0729 C24.0943,38.0729 16.5393,30.5169 16.5393,21.2299 C16.5393,11.9439 24.0943,4.3949 33.3823,4.3949 C42.6683,4.3949 50.2243,11.9439 50.2243,21.2299 C50.2243,30.5169 42.6683,38.0729 33.3823,38.0729 Z M65.4143,19.3849 C64.8383,18.5869 51.0693,-0.0001 33.3823,-0.0001 C15.6943,-0.0001 1.9253,18.5869 1.3493,19.3849 L0.0003,21.2299 L1.3493,23.0889 C1.9253,23.8809 15.6943,42.4679 33.3823,42.4679 C51.0693,42.4679 64.8383,23.8809 65.4143,23.0889 L66.7653,21.2299 L65.4143,19.3849 Z M33.3823,17.9359 C31.5633,17.9359 30.0873,19.4119 30.0873,21.2299 C30.0873,23.0489 31.5633,24.5319 33.3823,24.5319 C35.1993,24.5319 36.6763,23.0489 36.6763,21.2299 C36.6763,19.4119 35.1993,17.9359 33.3823,17.9359 Z M33.3823,28.9339 C29.1353,28.9339 25.6793,25.4779 25.6793,21.2299 C25.6793,16.9829 29.1353,13.5269 33.3823,13.5269 C37.6283,13.5269 41.0843,16.9829 41.0843,21.2299 C41.0843,25.4779 37.6283,28.9339 33.3823,28.9339 Z M33.3823,8.9369 C26.6043,8.9369 21.0893,14.4539 21.0893,21.2299 C21.0893,28.0149 26.6043,33.5299 33.3823,33.5299 C40.1593,33.5299 45.6803,28.0149 45.6803,21.2299 C45.6803,14.4539 40.1593,8.9369 33.3823,8.9369 Z M33.3823,17.9359 C31.5633,17.9359 30.0873,19.4119 30.0873,21.2299 C30.0873,23.0489 31.5633,24.5319 33.3823,24.5319 C35.1993,24.5319 36.6763,23.0489 36.6763,21.2299 C36.6763,19.4119 35.1993,17.9359 33.3823,17.9359 Z M33.3823,28.9339 C29.1353,28.9339 25.6793,25.4779 25.6793,21.2299 C25.6793,16.9829 29.1353,13.5269 33.3823,13.5269 C37.6283,13.5269 41.0843,16.9829 41.0843,21.2299 C41.0843,25.4779 37.6283,28.9339 33.3823,28.9339 Z M33.3823,8.9369 C26.6043,8.9369 21.0893,14.4539 21.0893,21.2299 C21.0893,28.0149 26.6043,33.5299 33.3823,33.5299 C40.1593,33.5299 45.6803,28.0149 45.6803,21.2299 C45.6803,14.4539 40.1593,8.9369 33.3823,8.9369 Z" id="Fill-1" fill="#FFFFFF" mask="url(#mask-2)"></path>
    </g>
</svg>