<?xml version="1.0" encoding="UTF-8"?>
<svg width="52px" height="67px" viewBox="0 0 52 67" version="1.1" xmlns="http://www.w3.org/2000/svg" xmlns:xlink="http://www.w3.org/1999/xlink">
    <!-- Generator: Sketch 64 (93537) - https://sketch.com -->
    <title>calculate</title>
    <desc>Created with Sketch.</desc>
    <g id="Page-1" stroke="none" stroke-width="1" fill="none" fill-rule="evenodd">
        <g id="calculate" transform="translate(2.000000, 2.000000)" stroke="#3ACA6B" stroke-width="2.7429">
            <path d="M45.3,63 L2.7,63 C1.2,63 0,61.8 0,60.3 L0,2.7 C0,1.2 1.2,0 2.7,0 L45.2,0 C46.7,0 47.9,1.2 47.9,2.7 L47.9,60.3 C48,61.8 46.8,63 45.3,63 Z" id="Path"></path>
            <rect id="Rectangle" x="5.5" y="24.6" width="37" height="32.9"></rect>
            <rect id="Rectangle" x="5.5" y="5.4" width="37" height="13.7"></rect>
            <line x1="17.8" y1="24.6" x2="17.8" y2="57.5" id="Path"></line>
            <line x1="30.2" y1="24.6" x2="30.2" y2="57.5" id="Path"></line>
            <line x1="5.5" y1="35.6" x2="42.5" y2="35.6" id="Path"></line>
            <line x1="5.5" y1="46.5" x2="30.2" y2="46.5" id="Path"></line>
        </g>
    </g>
</svg>