<?xml version="1.0" encoding="UTF-8"?>
<svg width="113px" height="96px" viewBox="0 0 113 96" version="1.1" xmlns="http://www.w3.org/2000/svg" xmlns:xlink="http://www.w3.org/1999/xlink">
    <!-- Generator: Sketch 49.3 (51167) - http://www.bohemiancoding.com/sketch -->
    <title>Page 1</title>
    <desc>Created with Sketch.</desc>
    <defs>
        <polygon id="path-1" points="0 0.00027320308 112.383 0.00027320308 112.383 95.3882 0 95.3882"></polygon>
    </defs>
    <g id="Page-1" stroke="none" stroke-width="1" fill="none" fill-rule="evenodd">
        <g>
            <mask id="mask-2" fill="white">
                <use xlink:href="#path-1"></use>
            </mask>
            <g id="Clip-2"></g>
            <path d="M52.6467,89.9547 L15.9327,78.4597 L15.9327,54.0927 L40.9347,61.9207 C41.1367,61.9827 41.3537,62.0267 41.5947,62.0527 L43.5047,62.6497 L44.5487,60.9617 C44.7137,60.7857 44.8527,60.6067 44.9707,60.4157 L52.6467,48.0017 L52.6467,89.9547 Z M15.4427,28.9027 L52.1837,40.4057 L41.5957,57.5277 L4.8547,46.0247 L15.4427,28.9027 Z M28.3347,28.3397 L32.4817,27.2507 L52.6467,22.2647 L52.6467,35.9507 L28.3347,28.3397 Z M43.7087,4.4977 L53.6117,17.5047 L15.5057,26.9267 L5.6027,13.9197 L43.7087,4.4977 Z M95.3397,29.2387 L56.4117,17.5267 L68.1097,6.0747 L107.1887,17.7057 L95.3397,29.2387 Z M68.0667,53.4427 L58.1627,40.4337 L95.3517,31.1367 L105.2557,44.1457 L68.0667,53.4427 Z M94.8217,80.7037 L57.5347,90.0247 L57.5347,46.8547 L64.9247,56.5617 C65.0677,56.7497 65.2297,56.9237 65.4087,57.0797 L66.3547,58.3217 L67.8787,57.9407 C68.1167,57.9307 68.3477,57.8967 68.5707,57.8417 L94.8217,51.2787 L94.8217,80.7037 Z M57.5347,36.0667 L57.5347,22.4477 L82.2557,29.8867 L57.5347,36.0667 Z M112.2827,16.4517 C111.9867,15.2477 111.0637,14.2797 109.8747,13.9267 L68.8677,1.7207 C68.5427,1.6237 68.2057,1.5747 67.8657,1.5747 C66.9417,1.5747 66.0697,1.9307 65.4087,2.5767 L55.2977,12.4747 L46.8507,1.3797 C46.0187,0.2867 44.5487,-0.2313 43.2137,0.0987 L3.2517,9.9787 C2.0997,10.2637 1.1767,11.1007 0.7827,12.2207 C0.3887,13.3397 0.5827,14.5707 1.3007,15.5147 L10.8257,28.0237 L0.5277,44.6777 C-0.0473,45.6067 -0.1583,46.7267 0.2237,47.7517 C0.6057,48.7747 1.4217,49.5487 2.4637,49.8757 L11.5447,52.7187 C11.5437,52.7537 11.5427,52.7877 11.5427,52.8227 L11.5427,79.1047 C11.5427,80.6477 12.5327,81.9957 14.0057,82.4567 L55.0937,95.3887 L96.5517,84.7957 C98.1177,84.4037 99.2107,83.0037 99.2107,81.3897 L99.2107,50.1817 L107.6137,48.0807 C108.7627,47.7937 109.6827,46.9547 110.0747,45.8377 C110.4677,44.7197 110.2737,43.4897 109.5547,42.5477 L100.3637,30.4747 L111.3217,19.8077 C112.2097,18.9427 112.5787,17.6567 112.2827,16.4517 Z" id="Fill-1" fill="#FFFFFF" mask="url(#mask-2)"></path>
        </g>
    </g>
</svg>