<?xml version="1.0" encoding="UTF-8"?>
<svg width="86px" height="78px" viewBox="0 0 86 78" version="1.1" xmlns="http://www.w3.org/2000/svg" xmlns:xlink="http://www.w3.org/1999/xlink">
    <!-- Generator: Sketch 49.3 (51167) - http://www.bohemiancoding.com/sketch -->
    <title>Page 1</title>
    <desc>Created with Sketch.</desc>
    <defs>
        <polygon id="path-1" points="0 0 85.289653 0 85.289653 21.2732 0 21.2732"></polygon>
        <polygon id="path-3" points="0.47169697 0.47294 85.7615455 0.47294 85.7615455 57.19974 0.47169697 57.19974"></polygon>
    </defs>
    <g id="Page-1" stroke="none" stroke-width="1" fill="none" fill-rule="evenodd">
        <g>
            <g id="Group-3">
                <mask id="mask-2" fill="white">
                    <use xlink:href="#path-1"></use>
                </mask>
                <g id="Clip-2"></g>
                <path d="M71.0742439,0 L14.2152136,0 C6.36380455,0 -0.000195454545,6.3505 -0.000195454545,14.18105 L-0.000195454545,21.2732 L85.289653,21.2732 L85.289653,14.18105 C85.289653,6.3505 78.923047,0 71.0742439,0" id="Fill-1" fill="#E6E6E6" mask="url(#mask-2)"></path>
            </g>
            <path d="M15.1629076,10.636795 C15.1629076,8.938345 13.7843015,7.563595 12.0825439,7.563595 C10.3814379,7.563595 9.0021803,8.938345 9.0021803,10.636795 C9.0021803,12.334595 10.3814379,13.709345 12.0825439,13.709345 C13.7843015,13.709345 15.1629076,12.334595 15.1629076,10.636795" id="Fill-4" fill="#00C882"></path>
            <path d="M24.1667167,10.636795 C24.1667167,8.938345 22.7874591,7.563595 21.086353,7.563595 C19.385247,7.563595 18.0053379,8.938345 18.0053379,10.636795 C18.0053379,12.334595 19.385247,13.709345 21.086353,13.709345 C22.7874591,13.709345 24.1667167,12.334595 24.1667167,10.636795" id="Fill-6" fill="#FFB400"></path>
            <path d="M33.1705909,10.636795 C33.1705909,8.938345 31.7906818,7.563595 30.0895758,7.563595 C28.3891212,7.563595 27.0098636,8.938345 27.0098636,10.636795 C27.0098636,12.334595 28.3891212,13.709345 30.0895758,13.709345 C31.7906818,13.709345 33.1705909,12.334595 33.1705909,10.636795" id="Fill-8" fill="#F01E1E"></path>
            <g id="Group-12" transform="translate(0.000000, 20.800000)">
                <mask id="mask-4" fill="white">
                    <use xlink:href="#path-3"></use>
                </mask>
                <g id="Clip-11"></g>
                <path d="M0.47169697,0.47294 L0.47169697,43.01869 C0.47169697,50.85054 6.83634848,57.19974 14.6871061,57.19974 L71.5461364,57.19974 C79.3949394,57.19974 85.762197,50.85054 85.762197,43.01869 L85.762197,0.47294 L0.47169697,0.47294 Z" id="Fill-10" fill="#464646" mask="url(#mask-4)"></path>
            </g>
            <path d="M42.9531561,54.86533 C40.1242773,54.86533 38.1286864,52.62413 38.1286864,49.63543 C38.1286864,46.56483 40.2083227,44.40748 43.1199439,44.40748 C46.0315652,44.40748 48.0284591,46.56483 48.0284591,49.63543 C48.0284591,52.62413 46.1156106,54.86533 43.0372015,54.86533 L42.9531561,54.86533 Z" id="Fill-13" fill="#FFFFFF"></path>
        </g>
    </g>
</svg>