<?xml version="1.0" encoding="UTF-8"?>
<svg width="85px" height="77px" viewBox="0 0 85 77" version="1.1" xmlns="http://www.w3.org/2000/svg" xmlns:xlink="http://www.w3.org/1999/xlink">
    <!-- Generator: Sketch 49.3 (51167) - http://www.bohemiancoding.com/sketch -->
    <title>Page 1</title>
    <desc>Created with Sketch.</desc>
    <defs>
        <polygon id="path-1" points="0 0 84.2979129 0 84.2979129 21.0004667 0 21.0004667"></polygon>
        <polygon id="path-3" points="0.466212121 0.466876667 84.7643182 0.466876667 84.7643182 56.46641 0.466212121 56.46641"></polygon>
    </defs>
    <g id="Page-1" stroke="none" stroke-width="1" fill="none" fill-rule="evenodd">
        <g>
            <g id="Group-3">
                <mask id="mask-2" fill="white">
                    <use xlink:href="#path-1"></use>
                </mask>
                <g id="Clip-2"></g>
                <path d="M70.2477992,0 L14.0499205,0 C6.28980682,0 -0.000193181818,6.26908333 -0.000193181818,13.9992417 L-0.000193181818,21.0004667 L84.2979129,21.0004667 L84.2979129,13.9992417 C84.2979129,6.26908333 78.0053371,0 70.2477992,0" id="Fill-1" fill="#E6E6E6" mask="url(#mask-2)"></path>
            </g>
            <path d="M14.9865947,10.5004258 C14.9865947,8.82375083 13.6240189,7.46662583 11.9420492,7.46662583 C10.2607235,7.46662583 8.89750379,8.82375083 8.89750379,10.5004258 C8.89750379,12.1764592 10.2607235,13.5335842 11.9420492,13.5335842 C13.6240189,13.5335842 14.9865947,12.1764592 14.9865947,10.5004258" id="Fill-4" fill="#00C882"></path>
            <path d="M23.8857083,10.5004258 C23.8857083,8.82375083 22.5224886,7.46662583 20.8411629,7.46662583 C19.1598371,7.46662583 17.7959735,8.82375083 17.7959735,10.5004258 C17.7959735,12.1764592 19.1598371,13.5335842 20.8411629,13.5335842 C22.5224886,13.5335842 23.8857083,12.1764592 23.8857083,10.5004258" id="Fill-6" fill="#FFB400"></path>
            <path d="M32.7848864,10.5004258 C32.7848864,8.82375083 31.4210227,7.46662583 29.739697,7.46662583 C28.0590152,7.46662583 26.6957955,8.82375083 26.6957955,10.5004258 C26.6957955,12.1764592 28.0590152,13.5335842 29.739697,13.5335842 C31.4210227,13.5335842 32.7848864,12.1764592 32.7848864,10.5004258" id="Fill-8" fill="#F01E1E"></path>
            <g id="Group-12" transform="translate(0.000000, 20.533333)">
                <mask id="mask-4" fill="white">
                    <use xlink:href="#path-3"></use>
                </mask>
                <g id="Clip-11"></g>
                <path d="M0.466212121,0.466876667 L0.466212121,42.4671683 C0.466212121,50.19861 6.75685606,56.46641 14.5163258,56.46641 L70.7142045,56.46641 C78.4717424,56.46641 84.7649621,50.19861 84.7649621,42.4671683 L84.7649621,0.466876667 L0.466212121,0.466876667 Z" id="Fill-10" fill="#464646" mask="url(#mask-4)"></path>
            </g>
            <polygon id="Fill-13" fill="#FFFFFF" points="26.556125 34.8496225 17.099875 48.9983725 26.556125 63.1503308 32.8403295 63.1503308 23.3821477 48.9983725 32.8403295 34.8496225"></polygon>
            <polygon id="Fill-15" fill="#FFFFFF" points="58.6744697 34.8496225 68.1313636 48.9983725 58.6744697 63.1503308 52.3902652 63.1503308 61.8458712 48.9983725 52.3902652 34.8496225"></polygon>
            <polygon id="Fill-17" fill="#FFFFFF" points="46.7657121 34.8496225 35.6564697 63.1503308 38.4653333 63.1503308 49.5732879 34.8496225"></polygon>
        </g>
    </g>
</svg>