<?xml version="1.0" encoding="UTF-8"?>
<svg width="108px" height="108px" viewBox="0 0 108 108" version="1.1" xmlns="http://www.w3.org/2000/svg" xmlns:xlink="http://www.w3.org/1999/xlink">
    <!-- Generator: Sketch 49.3 (51167) - http://www.bohemiancoding.com/sketch -->
    <title>Page 1</title>
    <desc>Created with Sketch.</desc>
    <defs>
        <polygon id="path-1" points="0 0 108 0 108 107.999856 0 107.999856"></polygon>
    </defs>
    <g id="Page-1" stroke="none" stroke-width="1" fill="none" fill-rule="evenodd">
        <g>
            <path d="M54,62.925804 C49.07844,62.925804 45.07452,58.921524 45.07452,53.999964 C45.07452,49.077324 49.07844,45.073044 54,45.073044 C58.92264,45.073044 62.92728,49.077324 62.92728,53.999964 C62.92728,58.921524 58.92264,62.925804 54,62.925804 M54,35.681364 C43.9002,35.681364 35.68284,43.898724 35.68284,53.999964 C35.68284,64.099764 43.9002,72.317124 54,72.317124 C64.10124,72.317124 72.3186,64.099764 72.3186,53.999964 C72.3186,43.898724 64.10124,35.681364 54,35.681364" id="Fill-1" fill="#FEFEFE"></path>
            <g id="Group-5">
                <mask id="mask-2" fill="white">
                    <use xlink:href="#path-1"></use>
                </mask>
                <g id="Clip-4"></g>
                <path d="M54,91.145736 C33.51744,91.145736 16.85412,74.482776 16.85412,53.999856 C16.85412,33.517296 33.51744,16.853256 54,16.853256 C74.48256,16.853256 91.14696,33.517296 91.14696,53.999856 C91.14696,74.482776 74.48256,91.145736 54,91.145736 Z M108,49.304376 L100.30032,49.304376 C98.09352,27.385056 80.61516,9.905976 58.69584,7.699176 L58.69584,-0.000144 L49.30452,-0.000144 L49.30452,7.699176 C27.3852,9.905976 9.90756,27.385056 7.70076,49.304376 L0,49.304376 L0,58.695696 L7.70076,58.695696 C9.90756,80.614656 27.3852,98.092296 49.30452,100.299096 L49.30452,107.999856 L58.69584,107.999856 L58.69584,100.299096 C80.61516,98.092296 98.09352,80.614656 100.30032,58.695696 L108,58.695696 L108,49.304376 Z" id="Fill-3" fill="#FEFEFE" mask="url(#mask-2)"></path>
            </g>
        </g>
    </g>
</svg>